<svg width="396" height="624" viewBox="0 0 396 624" fill="none" xmlns="http://www.w3.org/2000/svg">
<g opacity="0.05">
<path d="M59.9913 0V91.405C180.61 91.4252 278.772 190.383 278.772 312.02C278.772 433.637 180.61 532.615 59.9311 532.615C-13.5246 532.615 -78.4837 495.883 -118.194 439.692L-196.471 486.569C-140.771 569.428 -46.6268 624 59.9512 624C230.604 624 369.461 484.037 369.461 312.02C369.441 139.983 230.625 0.0202492 59.9913 0Z" fill="white"/>
<path d="M59.937 474.417C148.906 474.417 221.029 401.708 221.029 312.018C221.029 222.328 148.906 149.619 59.937 149.619C-29.0318 149.619 -101.155 222.328 -101.155 312.018C-101.155 401.708 -29.0318 474.417 59.937 474.417Z" fill="#219653"/>
</g>
</svg>
