<svg width="18" height="18" viewBox="0 0 18 18" fill="none" xmlns="http://www.w3.org/2000/svg">
<path d="M14.0625 15H3.9375C2.63773 15 1.57557 13.9827 1.50386 12.7008L1.5 12.5625V4.6875C1.5 3.79435 2.19387 3.06327 3.07196 3.00389L3.1875 3H12.5625C13.4556 3 14.1867 3.69387 14.2461 4.57196L14.25 4.6875V5.25H14.8125C15.7056 5.25 16.4367 5.94387 16.4961 6.82196L16.5 6.9375V12.5625C16.5 13.8623 15.4827 14.9244 14.2008 14.9961L14.0625 15H3.9375H14.0625ZM3.9375 13.875H14.0625C14.7511 13.875 15.3159 13.3447 15.3706 12.6701L15.375 12.5625V6.9375C15.375 6.65273 15.1634 6.41738 14.8888 6.38013L14.8125 6.375H14.25V12.1875C14.25 12.4723 14.0384 12.7076 13.7638 12.7449L13.6875 12.75C13.4027 12.75 13.1674 12.5384 13.1301 12.2638L13.125 12.1875V4.6875C13.125 4.40273 12.9134 4.16738 12.6388 4.13013L12.5625 4.125H3.1875C2.90273 4.125 2.66738 4.33662 2.63014 4.61117L2.625 4.6875V12.5625C2.625 13.2511 3.15533 13.8159 3.82985 13.8706L3.9375 13.875H14.0625H3.9375ZM9.18451 10.875H11.4392C11.7498 10.875 12.0017 11.1268 12.0017 11.4375C12.0017 11.7223 11.7901 11.9576 11.5155 11.9949L11.4392 12H9.18451C8.87385 12 8.62201 11.7482 8.62201 11.4375C8.62201 11.1527 8.83362 10.9174 9.10818 10.8801L9.18451 10.875H11.4392H9.18451ZM6.93246 8.25336C7.24312 8.25336 7.49496 8.5052 7.49496 8.81586V11.4375C7.49496 11.7482 7.24312 12 6.93246 12H4.31082C4.00016 12 3.74832 11.7482 3.74832 11.4375V8.81586C3.74832 8.5052 4.00016 8.25336 4.31082 8.25336H6.93246ZM6.36996 9.37836H4.87332V10.875H6.36996V9.37836ZM9.18451 8.25336H11.4392C11.7498 8.25336 12.0017 8.5052 12.0017 8.81586C12.0017 9.10063 11.7901 9.33598 11.5155 9.37322L11.4392 9.37836H9.18451C8.87385 9.37836 8.62201 9.12652 8.62201 8.81586C8.62201 8.53109 8.83362 8.29574 9.10818 8.25849L9.18451 8.25336H11.4392H9.18451ZM4.31082 5.62685H11.4392C11.7498 5.62685 12.0017 5.87869 12.0017 6.18935C12.0017 6.47413 11.7901 6.70947 11.5155 6.74672L11.4392 6.75185H4.31082C4.00016 6.75185 3.74832 6.50001 3.74832 6.18935C3.74832 5.90458 3.95994 5.66924 4.23449 5.63199L4.31082 5.62685H11.4392H4.31082Z" fill="white"/>
</svg>
