<svg width="18" height="20" viewBox="0 0 18 20" fill="none" xmlns="http://www.w3.org/2000/svg">
<path d="M8.53585 0.160881C8.80811 -0.0536271 9.19189 -0.0536271 9.46415 0.160881L16.5708 5.76003C17.4733 6.4711 18 7.55666 18 8.70563V18C18 18.6904 17.4404 19.25 16.75 19.25H11.75C11.0596 19.25 10.5 18.6904 10.5 18V13C10.5 12.8619 10.3881 12.75 10.25 12.75H7.75C7.61193 12.75 7.5 12.8619 7.5 13V18C7.5 18.6904 6.94036 19.25 6.25 19.25H1.25C0.559644 19.25 0 18.6904 0 18V8.70563C0 7.55666 0.526724 6.4711 1.42923 5.76003L8.53585 0.160881ZM9 1.70482L2.35754 6.93827C1.81603 7.36491 1.5 8.01625 1.5 8.70563V17.75H6V13C6 12.0335 6.7835 11.25 7.75 11.25H10.25C11.2165 11.25 12 12.0335 12 13V17.75H16.5V8.70563C16.5 8.01625 16.184 7.36491 15.6425 6.93827L9 1.70482Z" fill="white"/>
</svg>
