<svg width="32" height="32" viewBox="0 0 32 32" fill="none" xmlns="http://www.w3.org/2000/svg">
<path d="M14.6292 0V4.68744C20.8647 4.68847 25.9394 9.76324 25.9394 16.001C25.9394 22.2378 20.8647 27.3136 14.6261 27.3136C10.8287 27.3136 7.47058 25.4299 5.41769 22.5483L1.37109 24.9522C4.25054 29.2015 9.11747 32 14.6272 32C23.4493 32 30.6277 24.8224 30.6277 16.001C30.6266 7.17861 23.4503 0.00103842 14.6292 0Z" fill="white"/>
<path d="M14.6267 24.3286C19.2261 24.3286 22.9546 20.6 22.9546 16.0005C22.9546 11.401 19.2261 7.67236 14.6267 7.67236C10.0273 7.67236 6.29883 11.401 6.29883 16.0005C6.29883 20.6 10.0273 24.3286 14.6267 24.3286Z" fill="#219653"/>
</svg>
