<svg width="18" height="18" viewBox="0 0 18 18" fill="none" xmlns="http://www.w3.org/2000/svg">
<path d="M15.5999 3C16.3731 3 17 3.6268 17 4.39995V6.20815C17 6.52041 16.7605 6.78049 16.4493 6.80615C15.5208 6.88271 14.7999 7.66178 14.7999 8.59996C14.7999 9.53815 15.5208 10.3172 16.4493 10.3938C16.7605 10.4194 17 10.6795 17 10.9918V12.7999C17 13.5731 16.3731 14.1999 15.5999 14.1999H2.39999C1.6268 14.1999 1 13.5731 1 12.7999L1.00023 10.9916C1.00027 10.6794 1.23971 10.4194 1.55084 10.3938C2.47921 10.3171 3.19999 9.53805 3.19999 8.59996C3.19999 7.66187 2.47921 6.88285 1.55084 6.80617C1.23971 6.78047 1.00027 6.52048 1.00023 6.20829L1 4.39999C1 3.6268 1.6268 3 2.39999 3H15.5999ZM15.8 5.70778V4.39999C15.8 4.28953 15.7104 4.19999 15.5999 4.19999H2.39999C2.28953 4.19999 2.19999 4.28953 2.19999 4.39991L2.20016 5.70785C3.47449 6.05923 4.39998 7.22717 4.39998 8.59996C4.39998 9.97276 3.47449 11.1407 2.20016 11.4921L2.19999 12.7999C2.19999 12.9104 2.28953 12.9999 2.39999 12.9999H15.5999C15.7104 12.9999 15.8 12.9104 15.8 12.7999V11.4921C14.5255 11.1409 13.5999 9.97286 13.5999 8.59996C13.5999 7.28198 14.453 6.15284 15.6488 5.75381L15.8 5.70778Z" fill="white"/>
</svg>
